<svg xmlns="http://www.w3.org/2000/svg" version="1.1" xmlns:xlink="http://www.w3.org/1999/xlink" xmlns:svgjs="http://svgjs.com/svgjs" width="512" height="512" x="0" y="0" viewBox="0 0 32 32" style="enable-background:new 0 0 512 512" xml:space="preserve" class=""><g><path xmlns="http://www.w3.org/2000/svg" d="m16 1a15 15 0 1 0 15 15 15.017 15.017 0 0 0 -15-15zm-4.307 9.893 3.6-3.6a1 1 0 0 1 1.416 0l3.6 3.6a1 1 0 1 1 -1.414 1.414l-1.895-1.893v8.786a1 1 0 1 1 -2 0v-8.786l-1.893 1.893a1 1 0 1 1 -1.414-1.414zm11.607 11.107a1 1 0 0 1 -1 1h-12.6a1 1 0 0 1 -1-1v-2.8a1 1 0 0 1 2 0v1.8h10.6v-1.8a1 1 0 0 1 2 0z" fill="#000000" data-original="#000000" class=""></path></g></svg>
